<svg aria-hidden="true" style="position: absolute; width: 0; height: 0; overflow: hidden;" version="1.1" xmlns="http://www.w3.org/2000/svg" xmlns:xlink="http://www.w3.org/1999/xlink">
<defs>
<symbol id="icon-group6" viewBox="0 0 68 32">
<path d="M34.491 15.012c-0.277-0.358-0.445-0.813-0.445-1.308 0-0.049 0.002-0.098 0.005-0.146l-0 0.007v-2.096q0-0.964 0.438-1.465 0.436-0.502 1.502-0.5 1.001 0 1.42 0.427c0.305 0.363 0.455 0.807 0.42 1.255v0.492h-1.193v-0.499q0.006-0.246-0.035-0.489c-0.021-0.118-0.082-0.219-0.17-0.289l-0.001-0.001c-0.107-0.072-0.239-0.115-0.381-0.115-0.018 0-0.036 0.001-0.053 0.002l0.002-0c-0.016-0.001-0.034-0.002-0.053-0.002-0.15 0-0.289 0.045-0.405 0.123l0.003-0.002c-0.099 0.079-0.169 0.19-0.197 0.316l-0.001 0.004c-0.030 0.143-0.048 0.307-0.048 0.476 0 0.015 0 0.030 0 0.045l-0-0.002v2.545c-0.019 0.245 0.034 0.491 0.153 0.714 0.062 0.077 0.142 0.137 0.235 0.172l0.004 0.001c0.097 0.037 0.204 0.051 0.308 0.040 0.014 0.001 0.031 0.002 0.048 0.002 0.14 0 0.27-0.044 0.376-0.119l-0.002 0.001c0.092-0.077 0.157-0.184 0.178-0.306l0-0.003c0.024-0.14 0.037-0.301 0.037-0.465 0-0.015-0-0.031-0-0.046l0 0.002v-0.516h1.193v0.471c0.003 0.037 0.004 0.080 0.004 0.124 0 0.453-0.157 0.869-0.419 1.198l0.003-0.004c-0.274 0.311-0.742 0.467-1.428 0.467s-1.206-0.166-1.5-0.511zM39.46 15.033q-0.452-0.487-0.452-1.431v-2.206q0-0.935 0.452-1.415t1.512-0.478q1.052 0 1.505 0.478c0.301 0.32 0.455 0.791 0.455 1.415v2.206q0 0.935-0.46 1.429-0.458 0.493-1.5 0.492c-0.695 0-1.208-0.166-1.513-0.49zM41.527 14.505c0.108-0.204 0.157-0.428 0.143-0.652v-2.7c0.001-0.022 0.002-0.047 0.002-0.073 0-0.208-0.053-0.403-0.146-0.574l0.003 0.006c-0.064-0.078-0.146-0.138-0.24-0.175l-0.004-0.001c-0.069-0.027-0.149-0.043-0.233-0.043-0.029 0-0.057 0.002-0.085 0.005l0.003-0c-0.024-0.003-0.052-0.005-0.081-0.005-0.084 0-0.165 0.016-0.239 0.045l0.004-0.002c-0.098 0.037-0.181 0.097-0.244 0.174l-0.001 0.001c-0.109 0.2-0.158 0.42-0.143 0.64v2.714c-0.015 0.224 0.034 0.448 0.143 0.652 0.069 0.069 0.156 0.124 0.252 0.161 0.091 0.037 0.196 0.058 0.307 0.058s0.216-0.021 0.312-0.060l-0.006 0.002c0.098-0.038 0.182-0.093 0.252-0.162l-0 0zM44.367 9.569h1.284l0.966 4.070 0.989-4.070h1.249l0.127 5.874h-0.924l-0.099-4.083-0.953 4.083h-0.742l-0.987-4.097-0.092 4.097h-0.934zM50.422 9.569h2.001q1.729 0 1.729 1.668 0 1.598-1.821 1.596h-0.681v2.611h-1.236zM52.132 12.079c0.122 0.013 0.246 0.004 0.364-0.029 0.116-0.031 0.225-0.085 0.316-0.156 0.142-0.199 0.204-0.432 0.178-0.663 0.001-0.020 0.001-0.044 0.001-0.067 0-0.166-0.022-0.327-0.064-0.479l0.003 0.013c-0.020-0.062-0.051-0.116-0.091-0.161l0 0c-0.043-0.048-0.095-0.088-0.153-0.117l-0.003-0.001c-0.143-0.060-0.31-0.096-0.485-0.096-0.023 0-0.046 0.001-0.069 0.002l0.003-0h-0.479v1.756zM55.935 9.569h1.327l1.361 5.874h-1.152l-0.269-1.355h-1.183l-0.276 1.355h-1.169zM57.068 13.408l-0.463-2.465-0.462 2.465zM59.721 9.569h0.865l1.655 3.351v-3.351h1.025v5.874h-0.823l-1.665-3.498v3.498h-1.060zM65.669 13.203l-1.377-3.626h1.159l0.84 2.329 0.788-2.329h1.135l-1.359 3.626v2.24h-1.185zM36.399 18.011v0.307h-1.008v2.387h-0.423v-2.387h-1.013v-0.307zM39.559 20.705h-0.327c-0.002 0-0.005 0-0.008 0-0.031 0-0.060-0.010-0.084-0.027l0 0c-0.023-0.015-0.042-0.036-0.053-0.061l-0-0.001-0.292-0.64h-1.399l-0.291 0.64c-0.009 0.029-0.025 0.053-0.045 0.073l-0 0c-0.023 0.016-0.052 0.026-0.083 0.026-0.003 0-0.006-0-0.009-0l0 0h-0.326l1.236-2.694h0.429zM37.513 19.705h1.166l-0.495-1.097c-0.030-0.067-0.061-0.151-0.087-0.238l-0.004-0.015q-0.025 0.077-0.047 0.143l-0.045 0.113zM41.688 20.441q0.116 0.004 0.233 0 0.1-0.009 0.197-0.032 0.091-0.020 0.178-0.049 0.081-0.029 0.165-0.065v-0.607h-0.494c-0.001 0-0.002 0-0.004 0-0.024 0-0.046-0.008-0.063-0.022l0 0c-0.008-0.006-0.014-0.013-0.019-0.021l-0-0c-0.003-0.008-0.006-0.017-0.006-0.027v-0.207h0.959v1.033c-0.15 0.093-0.323 0.169-0.508 0.217l-0.013 0.003q-0.153 0.038-0.309 0.055c-0.105 0.011-0.226 0.017-0.349 0.017-0.004 0-0.009 0-0.013-0h0.001c-0.005 0-0.011 0-0.017 0-0.217 0-0.425-0.037-0.619-0.104l0.013 0.004c-0.19-0.067-0.355-0.162-0.497-0.284l0.002 0.002c-0.132-0.117-0.239-0.259-0.315-0.418l-0.003-0.008c-0.072-0.159-0.114-0.345-0.114-0.541 0-0.006 0-0.013 0-0.019v0.001c-0-0.006-0-0.013-0-0.019 0-0.196 0.041-0.383 0.115-0.552l-0.003 0.009c0.071-0.16 0.18-0.305 0.319-0.427 0.141-0.121 0.309-0.216 0.495-0.279 0.211-0.069 0.436-0.103 0.662-0.1q0.173 0 0.343 0.023 0.151 0.022 0.294 0.068 0.131 0.043 0.247 0.107 0.113 0.063 0.215 0.141l-0.119 0.166c-0.010 0.016-0.023 0.028-0.039 0.037l-0.001 0c-0.017 0.008-0.036 0.014-0.056 0.015h-0c-0.028-0-0.055-0.008-0.077-0.022l0.001 0c-0.050-0.023-0.089-0.045-0.128-0.068l0.007 0.004c-0.046-0.026-0.101-0.050-0.157-0.070l-0.008-0.002c-0.064-0.023-0.14-0.044-0.219-0.058l-0.009-0.001c-0.089-0.015-0.192-0.023-0.296-0.023-0.006 0-0.012 0-0.018 0h0.001c-0.005-0-0.010-0-0.016-0-0.165 0-0.323 0.027-0.471 0.078l0.010-0.003c-0.137 0.047-0.262 0.12-0.364 0.213-0.097 0.092-0.175 0.203-0.227 0.328l-0.002 0.006c-0.053 0.133-0.083 0.288-0.083 0.449s0.030 0.316 0.086 0.458l-0.003-0.009c0.054 0.127 0.138 0.242 0.247 0.339 0.101 0.092 0.224 0.165 0.36 0.213 0.157 0.047 0.324 0.065 0.489 0.054zM45.626 20.398h1.349v0.307h-1.761v-2.694h0.422zM48.378 20.705h-0.422v-2.695h0.422zM49.95 18.024c0.025 0.013 0.047 0.029 0.065 0.049l0 0 1.806 2.031c-0.001-0.014-0.002-0.031-0.002-0.048s0.001-0.034 0.002-0.050l-0 0.002v-2.007h0.368v2.705h-0.212c-0.003 0-0.007 0-0.011 0-0.029 0-0.057-0.006-0.082-0.016l0.001 0.001c-0.026-0.013-0.048-0.030-0.066-0.051l-0-0-1.804-2.029v2.095h-0.353v-2.695h0.22q0.036 0 0.069 0.012zM55.299 18.011v0.297h-1.497v0.889h1.213v0.286h-1.213v0.919h1.497v0.296h-1.932v-2.687zM11.027 1.374l18.76 4.599v16.115l-18.76-4.596zM9.823 0v18.273l21.164 5.19v-18.271z"></path>
<path d="M21.167 31.946l-21.167-5.194v-18.272l21.167 5.193z"></path>
<path d="M10.175 1.167l18.515 4.541-7.873 6.8-18.519-4.543zM9.823 0l-9.823 8.481 21.167 5.191 9.821-8.479zM22.357 30.918l8.631-7.452-8.631-2.119z"></path>
</symbol>
<symbol id="icon-group5" viewBox="0 0 44 32">
<path d="M3.309 26.413c0.17 0.192 0.259 0.432 0.255 0.68 0.001 0.017 0.002 0.036 0.002 0.056 0 0.151-0.034 0.293-0.095 0.421l0.003-0.006c-0.073 0.155-0.176 0.284-0.303 0.386l-0.002 0.002c-0.288 0.199-0.645 0.318-1.030 0.318-0.042 0-0.083-0.001-0.124-0.004l0.006 0h-2.020v-4.306h1.978c0.034-0.002 0.074-0.004 0.115-0.004 0.365 0 0.704 0.108 0.989 0.294l-0.007-0.004c0.128 0.097 0.23 0.222 0.296 0.362s0.097 0.292 0.088 0.445c0.011 0.237-0.070 0.471-0.23 0.658-0.154 0.171-0.366 0.29-0.602 0.337 0.268 0.045 0.51 0.175 0.682 0.369zM0.939 25.763h0.846c0.192 0.013 0.383-0.038 0.538-0.143 0.061-0.051 0.11-0.115 0.143-0.187l0.001-0.003c0.025-0.056 0.039-0.122 0.039-0.191 0-0.014-0.001-0.027-0.002-0.040l0 0.002c0.001-0.011 0.001-0.024 0.001-0.037 0-0.070-0.015-0.136-0.041-0.196l0.001 0.003c-0.033-0.076-0.081-0.14-0.141-0.191l-0.001-0.001c-0.136-0.092-0.304-0.147-0.484-0.147-0.024 0-0.049 0.001-0.072 0.003l0.003-0h-0.832zM2.406 27.415c0.066-0.053 0.118-0.119 0.154-0.194l0.001-0.003c0.028-0.060 0.045-0.13 0.045-0.205 0-0.012-0-0.025-0.001-0.037l0 0.002c0.001-0.010 0.001-0.022 0.001-0.034 0-0.076-0.017-0.148-0.048-0.212l0.001 0.003c-0.038-0.079-0.092-0.146-0.157-0.198l-0.001-0.001c-0.146-0.099-0.325-0.158-0.518-0.158-0.020 0-0.039 0.001-0.059 0.002l0.003-0h-0.886v1.185h0.899c0.202 0.010 0.402-0.042 0.568-0.15zM7.353 28.264l-1.099-1.683h-0.414v1.683h-0.947v-4.306h1.793c0.038-0.003 0.083-0.004 0.128-0.004 0.422 0 0.811 0.139 1.125 0.374l-0.005-0.003c0.25 0.234 0.402 0.542 0.426 0.869s-0.079 0.65-0.293 0.913c-0.222 0.229-0.517 0.387-0.847 0.437l-0.008 0.001 1.172 1.72zM5.839 25.994h0.774q0.807 0 0.807-0.653c0.001-0.011 0.001-0.024 0.001-0.036 0-0.081-0.016-0.158-0.046-0.228l0.001 0.004c-0.036-0.087-0.089-0.162-0.154-0.222l-0-0c-0.147-0.111-0.333-0.178-0.535-0.178-0.026 0-0.052 0.001-0.078 0.003l0.003-0h-0.783zM12.529 27.398h-1.887l-0.333 0.867h-0.993l1.732-4.259h1.073l1.726 4.259h-0.992zM12.276 26.745l-0.689-1.818-0.689 1.818zM19.007 28.264h-0.939l-2.108-2.929v2.929h-0.938v-4.306h0.938l2.108 2.945v-2.945h0.939zM24.371 27.233c-0.195 0.326-0.49 0.59-0.851 0.76-0.366 0.172-0.795 0.272-1.247 0.272-0.026 0-0.053-0-0.079-0.001l0.004 0h-1.672v-4.306h1.673c0.022-0.001 0.049-0.001 0.075-0.001 0.451 0 0.88 0.098 1.266 0.273l-0.019-0.008c0.36 0.167 0.656 0.429 0.85 0.751 0.193 0.351 0.294 0.737 0.294 1.13s-0.101 0.779-0.294 1.13zM23.295 27.13c0.268-0.286 0.415-0.65 0.415-1.028s-0.147-0.742-0.415-1.027c-0.292-0.23-0.666-0.369-1.071-0.369-0.037 0-0.074 0.001-0.111 0.003l0.005-0h-0.653v2.787h0.653c0.032 0.002 0.069 0.003 0.106 0.003 0.406 0 0.779-0.139 1.075-0.372l-0.004 0.003zM13.117 0s12.131 4.193 11.874 10.262v10.264s-12.122-4.196-11.87-10.265zM35.798 18.122c2.291-1.443 4.941-2.337 7.708-2.6v-3.213c-3.187 1.125-5.892 3.165-7.708 5.814z"></path>
<path d="M34.422 19.091c1.875-3.457 5.126-6.125 9.084-7.455v-9.258s-17.277 5.974-16.911 14.616v14.612s0.77-0.267 1.981-0.768c0-0.467 0-0.938 0.056-1.412 0.357-4.011 2.44-7.729 5.791-10.335z"></path>
<path d="M32.779 24.519c0.101-1.105 0.315-2.121 0.632-3.090l-0.028 0.098c-2.087 2.25-3.35 5.043-3.613 7.985-0.026 0.278-0.040 0.555-0.046 0.842 1.442-0.631 2.533-1.168 3.602-1.74l-0.279 0.137c-0.306-1.391-0.397-2.816-0.269-4.232zM33.466 24.572c-0.034 0.356-0.053 0.77-0.053 1.188 0 0.936 0.097 1.849 0.282 2.73l-0.015-0.086c4.72-2.586 10.024-6.582 9.819-11.411v-0.421c-3.373 0.346-6.527 1.695-8.981 3.842-0.541 1.216-0.914 2.626-1.048 4.106l-0.004 0.052z"></path>
</symbol>
<symbol id="icon-group4" viewBox="0 0 66 32">
<path d="M10.26 9.68h-0.002c-1.872 0-3.389 1.348-3.389 3.012v0.002c0 1.663 1.517 3.012 3.389 3.012h0.002c1.872 0 3.389-1.349 3.389-3.012v-0.002c0-1.664-1.517-3.013-3.389-3.013zM35.274 8.718c-0.005-2.31-1.040-4.525-2.878-6.159s-4.329-2.554-6.928-2.559c-2.601 0.004-5.093 0.924-6.932 2.558s-2.875 3.849-2.88 6.16v12.74s19.617-1.942 19.619-12.738zM0 25.639c0.005 1.608 0.726 3.148 2.004 4.285s3.012 1.777 4.82 1.782c1.808-0.005 3.541-0.645 4.82-1.782s2-2.676 2.004-4.283v-8.865s-13.649 1.353-13.649 8.863zM6.825 27.227c-0.354 0-0.699-0.094-0.993-0.268-0.286-0.168-0.512-0.412-0.654-0.704l-0.004-0.010c-0.086-0.178-0.136-0.387-0.136-0.607 0-0.11 0.012-0.217 0.036-0.319l-0.002 0.010c0.069-0.308 0.239-0.592 0.489-0.813 0.249-0.218 0.56-0.372 0.903-0.433l0.011-0.002c0.105-0.019 0.225-0.030 0.348-0.030 0.246 0 0.481 0.044 0.699 0.126l-0.014-0.005c0.327 0.12 0.606 0.323 0.802 0.585s0.301 0.568 0.301 0.882c0 0.001 0 0.003 0 0.004 0 0.22-0.050 0.429-0.138 0.615l0.004-0.009c-0.096 0.203-0.226 0.375-0.385 0.515l-0.002 0.002c-0.165 0.148-0.363 0.265-0.581 0.347-0.201 0.077-0.434 0.121-0.676 0.121-0.003 0-0.006 0-0.009-0h0zM20.619 26.352h-1.317v1.36h-0.686v-3.33h2.168v0.556h-1.482v0.86h1.317zM23.916 26.124q0 0.492-0.173 0.862t-0.5 0.572c-0.204 0.127-0.451 0.202-0.716 0.202-0.008 0-0.017-0-0.025-0l0.001 0q-0.414 0-0.739-0.199c-0.218-0.137-0.391-0.33-0.499-0.559l-0.003-0.008c-0.114-0.241-0.181-0.523-0.181-0.821 0-0.010 0-0.021 0-0.031l-0 0.002v-0.164q0-0.492 0.176-0.865 0.178-0.375 0.501-0.574 0.324-0.201 0.741-0.201 0.415 0 0.738 0.201 0.325 0.199 0.501 0.574 0.178 0.372 0.178 0.862zM23.221 25.973q0-0.524-0.187-0.796c-0.111-0.166-0.297-0.273-0.508-0.273-0.010 0-0.019 0-0.029 0.001l0.001-0c-0.008-0-0.017-0.001-0.027-0.001-0.21 0-0.395 0.107-0.505 0.268l-0.001 0.002q-0.187 0.267-0.19 0.787v0.162q0 0.51 0.187 0.791t0.54 0.281c0.007 0 0.016 0 0.025 0 0.21 0 0.395-0.106 0.505-0.268l0.001-0.002q0.185-0.272 0.187-0.791zM26.14 26.839c0-0.006 0-0.012 0-0.019 0-0.113-0.053-0.214-0.136-0.278l-0.001-0.001q-0.137-0.105-0.494-0.219c-0.219-0.069-0.406-0.146-0.584-0.238l0.020 0.009q-0.567-0.306-0.567-0.826 0-0.269 0.151-0.48 0.154-0.212 0.437-0.332 0.286-0.119 0.64-0.119 0.357 0 0.636 0.13 0.279 0.128 0.432 0.364 0.156 0.235 0.156 0.535h-0.687q0.001-0.229-0.144-0.354-0.144-0.129-0.404-0.128-0.251 0-0.391 0.108c-0.085 0.062-0.14 0.161-0.14 0.273 0 0.002 0 0.004 0 0.006v-0q0 0.162 0.162 0.272c0.139 0.085 0.299 0.155 0.469 0.202l0.013 0.003q0.585 0.176 0.853 0.437t0.268 0.649q0 0.433-0.328 0.679-0.326 0.245-0.88 0.245-0.384 0-0.7-0.14c-0.198-0.084-0.361-0.216-0.48-0.382l-0.002-0.003c-0.103-0.154-0.164-0.343-0.164-0.546 0-0.007 0-0.015 0-0.022l-0 0.001h0.688q0 0.551 0.659 0.551 0.244 0 0.382-0.098c0.083-0.060 0.137-0.157 0.137-0.266 0-0.004-0-0.009-0-0.013l0 0.001zM29.802 24.939h-1.019v2.774h-0.687v-2.774h-1.005v-0.556h2.711zM32.198 26.27h-1.317v0.892h1.545v0.551h-2.231v-3.33h2.227v0.556h-1.541v0.794h1.317zM34.062 26.494h-0.546v1.219h-0.686v-3.33h1.237q0.59 0 0.91 0.263t0.32 0.743q0 0.341-0.148 0.57c-0.111 0.159-0.262 0.284-0.439 0.359l-0.007 0.003 0.72 1.36v0.032h-0.736zM33.516 25.938h0.554q0.258 0 0.4-0.13c0.088-0.085 0.142-0.204 0.142-0.336 0-0.010-0-0.019-0.001-0.029l0 0.001q0-0.236-0.134-0.371-0.133-0.135-0.41-0.135h-0.551zM37.673 26.54v1.173h-0.686v-3.33h1.299q0.375 0 0.659 0.137 0.286 0.137 0.439 0.391 0.153 0.252 0.153 0.574 0 0.49-0.336 0.773-0.334 0.281-0.926 0.282zM37.673 25.984h0.613q0.273 0 0.414-0.128 0.145-0.129 0.144-0.366c0-0.008 0.001-0.016 0.001-0.025 0-0.143-0.055-0.273-0.145-0.37l0 0q-0.144-0.152-0.398-0.156h-0.629zM42.012 26.27h-1.317v0.892h1.545v0.551h-2.231v-3.33h2.227v0.556h-1.541v0.794h1.317zM45.196 24.939h-1.020v2.774h-0.686v-2.774h-1.006v-0.556h2.712zM47.592 26.27h-1.317v0.892h1.545v0.551h-2.232v-3.33h2.227v0.556h-1.541v0.794h1.317zM49.456 26.494h-0.546v1.219h-0.687v-3.33h1.238q0.589 0 0.91 0.263t0.32 0.743q0 0.341-0.148 0.57c-0.111 0.16-0.262 0.284-0.44 0.359l-0.007 0.003 0.72 1.36v0.032h-0.736zM48.909 25.938h0.553q0.258 0 0.4-0.13c0.088-0.085 0.143-0.205 0.143-0.337 0-0.009-0-0.019-0.001-0.028l0 0.001q0-0.236-0.135-0.371-0.133-0.135-0.409-0.135h-0.551zM52.941 26.839c0-0.006 0-0.012 0-0.018 0-0.113-0.054-0.214-0.137-0.278l-0.001-0.001q-0.137-0.105-0.494-0.219c-0.219-0.069-0.406-0.146-0.584-0.238l0.020 0.009q-0.567-0.306-0.567-0.826 0-0.269 0.151-0.48 0.154-0.212 0.437-0.332 0.286-0.119 0.64-0.119 0.357 0 0.636 0.13 0.279 0.128 0.432 0.364 0.156 0.235 0.156 0.535h-0.687q0.001-0.229-0.144-0.354-0.144-0.129-0.404-0.128-0.252 0-0.391 0.108c-0.086 0.062-0.141 0.161-0.141 0.273 0 0.002 0 0.004 0 0.006v-0q0 0.162 0.163 0.272t0.482 0.205q0.585 0.176 0.853 0.437t0.268 0.649q0 0.433-0.328 0.679t-0.88 0.245q-0.384 0-0.7-0.14c-0.198-0.084-0.361-0.216-0.48-0.382l-0.002-0.003c-0.103-0.154-0.164-0.343-0.164-0.546 0-0.007 0-0.015 0-0.022l-0 0.001h0.688q0 0.551 0.659 0.551 0.245 0 0.382-0.098c0.084-0.060 0.138-0.157 0.138-0.267 0-0.004-0-0.008-0-0.012l0 0.001z"></path>
</symbol>
<symbol id="icon-group3" viewBox="0 0 34 32">
<path d="M5.125 30.782q0.018 0 0.035 0.007c0.012 0.004 0.022 0.010 0.030 0.018v0l0.166 0.158c-0.13 0.129-0.289 0.232-0.468 0.302-0.185 0.069-0.398 0.109-0.621 0.109-0.015 0-0.029-0-0.044-0.001l0.002 0c-0.213 0.004-0.425-0.030-0.622-0.101-0.182-0.066-0.338-0.163-0.47-0.286l0.001 0.001c-0.128-0.121-0.231-0.268-0.301-0.432l-0.003-0.008c-0.067-0.161-0.106-0.348-0.106-0.544 0-0.008 0-0.015 0-0.023v0.001c-0-0.009-0-0.019-0-0.029 0-0.388 0.168-0.737 0.436-0.977l0.001-0.001c0.142-0.124 0.312-0.222 0.498-0.286 0.205-0.069 0.423-0.104 0.642-0.101 0.203-0.005 0.406 0.027 0.596 0.091 0.165 0.062 0.316 0.149 0.447 0.255l-0.139 0.169c-0.010 0.012-0.022 0.022-0.035 0.030l-0.001 0c-0.014 0.008-0.030 0.013-0.048 0.013-0.003 0-0.006-0-0.008-0l0 0c-0.023-0.002-0.043-0.008-0.062-0.018l0.001 0-0.074-0.046-0.104-0.057c-0.095-0.046-0.205-0.081-0.321-0.1l-0.007-0.001c-0.071-0.012-0.152-0.018-0.236-0.018-0.004 0-0.008 0-0.013 0h0.001c-0.003-0-0.007-0-0.010-0-0.162 0-0.317 0.028-0.46 0.079l0.010-0.003c-0.137 0.048-0.26 0.12-0.362 0.213-0.104 0.098-0.183 0.213-0.235 0.339-0.054 0.128-0.085 0.276-0.085 0.432 0 0.005 0 0.011 0 0.016v-0.001c-0 0.007-0 0.015-0 0.023 0 0.156 0.031 0.304 0.088 0.44l-0.003-0.008q0.078 0.189 0.231 0.338c0.095 0.091 0.213 0.164 0.345 0.21 0.136 0.049 0.281 0.074 0.427 0.072q0.127 0.002 0.254-0.014c0.212-0.021 0.4-0.106 0.55-0.234l-0.001 0.001c0.021-0.017 0.049-0.028 0.078-0.029h0zM9.923 29.984c0.003 0.191-0.035 0.382-0.112 0.562-0.074 0.172-0.18 0.317-0.311 0.435l-0.001 0.001c-0.138 0.122-0.302 0.22-0.481 0.283l-0.010 0.003c-0.189 0.064-0.406 0.101-0.632 0.101s-0.443-0.037-0.646-0.105l0.014 0.004c-0.188-0.067-0.351-0.164-0.489-0.288l0.001 0.001c-0.133-0.121-0.239-0.267-0.313-0.432l-0.003-0.008c-0.071-0.166-0.112-0.359-0.112-0.562s0.041-0.396 0.116-0.572l-0.004 0.010c0.071-0.165 0.178-0.315 0.316-0.442 0.139-0.121 0.305-0.215 0.488-0.277 0.188-0.066 0.406-0.103 0.632-0.103s0.443 0.038 0.646 0.108l-0.014-0.004c0.184 0.065 0.351 0.163 0.491 0.286 0.136 0.126 0.243 0.274 0.313 0.435 0.077 0.181 0.115 0.373 0.112 0.565zM9.487 29.984c0-0.005 0-0.012 0-0.018 0-0.156-0.029-0.304-0.082-0.441l0.003 0.008c-0.101-0.26-0.308-0.46-0.566-0.549l-0.007-0.002c-0.137-0.047-0.295-0.075-0.459-0.075s-0.322 0.027-0.469 0.078l0.010-0.003c-0.136 0.049-0.254 0.121-0.352 0.214l0-0c-0.097 0.092-0.173 0.205-0.223 0.331l-0.002 0.006c-0.050 0.134-0.079 0.289-0.079 0.451s0.029 0.317 0.082 0.46l-0.003-0.009c0.101 0.26 0.309 0.46 0.569 0.547l0.006 0.002c0.296 0.097 0.622 0.097 0.918 0 0.133-0.046 0.253-0.119 0.35-0.211 0.1-0.098 0.175-0.213 0.222-0.338 0.056-0.145 0.082-0.298 0.079-0.451zM13.197 30.457l0.043 0.101q0.024-0.053 0.048-0.101c0.018-0.039 0.036-0.071 0.056-0.102l-0.002 0.003 1.061-1.677q0.030-0.044 0.061-0.053c0.023-0.006 0.048-0.009 0.075-0.009 0.004 0 0.008 0 0.012 0l-0.001-0h0.314v2.728h-0.372v-2.090c-0.001-0.014-0.001-0.031-0.001-0.047s0.001-0.033 0.002-0.049l-0 0.002-1.068 1.701c-0.015 0.026-0.036 0.047-0.062 0.061l-0.001 0c-0.026 0.014-0.057 0.023-0.090 0.023-0 0-0.001 0-0.001 0h-0.060c-0.001 0-0.002 0-0.003 0-0.033 0-0.063-0.008-0.089-0.023l0.001 0c-0.026-0.014-0.047-0.035-0.061-0.061l-0-0.001-1.099-1.711v2.189h-0.359v-2.722h0.313c0.004-0 0.008-0 0.012-0 0.027 0 0.053 0.003 0.077 0.010l-0.002-0q0.040 0.018 0.058 0.053l1.084 1.678q0.032 0.046 0.054 0.098zM17.192 30.322v1.021h-0.415v-2.723h0.926c0.010-0 0.022-0 0.035-0 0.171 0 0.338 0.022 0.497 0.063l-0.014-0.003c0.134 0.034 0.259 0.091 0.366 0.17 0.089 0.070 0.16 0.159 0.206 0.262l0.002 0.004c0.050 0.111 0.073 0.23 0.071 0.349q0.002 0.181-0.076 0.348c-0.054 0.11-0.13 0.201-0.223 0.271l-0.002 0.001c-0.107 0.082-0.232 0.143-0.368 0.18-0.14 0.040-0.301 0.064-0.468 0.064-0.012 0-0.023-0-0.035-0l0.002 0zM17.192 30.029h0.503q0.165 0.002 0.322-0.041c0.089-0.026 0.166-0.066 0.234-0.118l-0.002 0.001c0.117-0.097 0.191-0.241 0.191-0.404 0-0.002 0-0.004-0-0.007v0c0.001-0.009 0.001-0.019 0.001-0.030 0-0.070-0.016-0.135-0.043-0.194l0.001 0.003c-0.035-0.074-0.084-0.136-0.144-0.185l-0.001-0.001c-0.139-0.093-0.309-0.149-0.493-0.149-0.023 0-0.046 0.001-0.069 0.003l0.003-0h-0.503zM22.776 31.346h-0.328c-0.002 0-0.005 0-0.007 0-0.031 0-0.060-0.009-0.085-0.026l0.001 0c-0.024-0.016-0.042-0.037-0.054-0.062l-0-0.001-0.282-0.658h-1.419l-0.293 0.658c-0.025 0.053-0.078 0.088-0.14 0.088-0.002 0-0.003-0-0.005-0h-0.329l1.246-2.728h0.432zM20.718 30.334h1.173l-0.495-1.11q-0.056-0.125-0.093-0.256l-0.048 0.142q-0.023 0.066-0.046 0.116zM24.571 28.632q0.037 0.018 0.062 0.049l1.818 2.056v-2.117h0.372v2.728h-0.207c-0.031-0-0.060-0.006-0.087-0.017l0.002 0.001c-0.026-0.013-0.048-0.030-0.066-0.050l-0-0-1.816-2.054c0.001 0.014 0.001 0.030 0.001 0.047s-0.001 0.033-0.002 0.049l0-0.002v2.027h-0.372v-2.728h0.22c0.027 0 0.052 0.005 0.076 0.014l-0.002-0zM29.884 30.262v1.083h-0.415v-1.082l-1.149-1.643h0.372c0.003-0 0.006-0 0.009-0 0.030 0 0.058 0.009 0.081 0.023l-0.001-0q0.034 0.027 0.056 0.062l0.718 1.060q0.043 0.068 0.075 0.126t0.053 0.115l0.053-0.117q0.030-0.064 0.071-0.124l0.709-1.067c0.016-0.022 0.033-0.041 0.053-0.058l0-0c0.023-0.017 0.051-0.027 0.082-0.027 0.003 0 0.006 0 0.009 0l-0-0h0.376zM12.991 24.043q0.272 0.030 0.549 0.050c2.803-1.090 5.174-2.872 6.818-5.126s2.485-4.878 2.421-7.545l-3.090-2.684c0.629 2.84 0.335 5.775-0.848 8.478s-3.208 5.067-5.849 6.827z"></path>
<path d="M11.889 23.918l0.083 0.015c2.822-1.755 4.974-4.203 6.176-7.031s1.402-5.904 0.571-8.83l-4.4-3.822c1.779 3.142 2.496 6.659 2.065 10.141-0.43 3.482-1.989 6.786-4.495 9.528zM26.81 14.573c-0.747 2.93-2.563 5.573-5.177 7.537-0.714 0.543-1.519 1.053-2.367 1.491l-0.092 0.043c2.129-0.543 4.085-1.504 5.718-2.808s2.901-2.917 3.703-4.714z"></path>
<path d="M26.11 14.141l-2.54-2.207c-0.049 2.517-0.872 4.976-2.385 7.122s-3.66 3.902-6.217 5.084h0.012c0.601-0.001 1.194-0.033 1.778-0.095l-0.073 0.006c2.39-0.848 4.502-2.197 6.146-3.926s2.771-3.785 3.278-5.985zM12.256 2.637l-3.031-2.637c-2.709 0.91-5.039 2.509-6.686 4.588s-2.531 4.542-2.539 7.066c0.010 2.789 1.090 5.495 3.070 7.69 1.979 2.195 4.744 3.754 7.858 4.43 2.779-2.942 4.407-6.578 4.646-10.379s-0.924-7.57-3.319-10.757zM33.112 13.735c-0.011-3.308-1.528-6.478-4.221-8.818s-6.342-3.658-10.15-3.667c-0.008 0-0.018-0-0.028-0-1.831 0-3.59 0.305-5.231 0.866l0.114-0.034 18.556 16.122c0.605-1.313 0.958-2.849 0.96-4.468v-0.001z"></path>
</symbol>
<symbol id="icon-group2" viewBox="0 0 25 32">
<path d="M10.532 1.806h-0.084c-0.129-0.008-0.258-0.011-0.388-0.014h-0.28c-0.244 0-0.494 0.006-0.741 0.018-0.008-0-0.018-0.001-0.028-0.001s-0.020 0-0.029 0.001l0.001-0c-2.376 0.139-4.582 0.733-6.576 1.696l0.104-0.045-0.266 0.128v13.626l0.623-0.212c0.546-0.188 1.129-0.357 1.731-0.513 1.488-0.398 3.202-0.638 4.967-0.661l0.014-0v1.79c-0.223 0.001-0.439 0.007-0.655 0.018h-0.052c-1.399 0.079-2.71 0.289-3.971 0.619l0.139-0.031c-1.734 0.441-3.254 1.050-4.666 1.83l0.1-0.051v-17.475c1.379-0.82 2.975-1.488 4.665-1.921l0.127-0.027c1.353-0.364 2.907-0.576 4.51-0.582h0.267c0.314 0.008 0.622 0.022 0.91 0.044 0.829 0.059 1.597 0.187 2.339 0.378l-0.090-0.020v1.762c-0.628-0.154-1.373-0.271-2.134-0.326l-0.045-0.003-0.044-0.004c-0.152-0.013-0.304-0.026-0.446-0.026zM13.633 3.607c0.391 0.030 0.796 0.044 1.205 0.044 1.689-0.007 3.324-0.229 4.882-0.64l-0.135 0.030c1.734-0.443 3.252-1.052 4.665-1.831l-0.101 0.051v17.163c-1.379 0.819-2.975 1.487-4.664 1.921l-0.127 0.028c-1.353 0.362-2.908 0.574-4.511 0.581h-0.004c-0.033 0-0.072 0-0.111 0-1.177 0-2.319-0.147-3.409-0.425l0.095 0.021v-17.275q0.398 0.094 0.814 0.164c0.455 0.077 0.934 0.133 1.401 0.167zM22.367 3.74l-0.623 0.209q-0.86 0.289-1.731 0.518c-1.551 0.415-3.332 0.656-5.169 0.663h-0.004c-0.406 0-0.78-0.011-1.141-0.034l-0.497-0.033v14.017l0.426 0.037c0.395 0.035 0.803 0.052 1.214 0.052 1.451-0.007 2.853-0.199 4.19-0.554l-0.116 0.026c1.221-0.311 2.281-0.702 3.285-1.189l-0.102 0.045 0.266-0.128z"></path>
<path d="M1.684 25.977c-0.168-0.173-0.403-0.28-0.663-0.28-0.011 0-0.021 0-0.032 0.001l0.002-0c-0.003-0-0.007-0-0.011-0-0.14 0-0.274 0.028-0.396 0.078l0.007-0.003q-0.177 0.071-0.311 0.205c-0.085 0.087-0.153 0.191-0.198 0.307l-0.002 0.006c-0.049 0.123-0.073 0.254-0.071 0.386v2.335c-0.006 0.164 0.026 0.328 0.092 0.479 0.055 0.12 0.135 0.226 0.234 0.313 0.093 0.078 0.202 0.135 0.32 0.166q0.172 0.047 0.349 0.048c0.13 0.001 0.258-0.026 0.377-0.081 0.35-0.156 0.59-0.501 0.591-0.901v-0.261h-0.611v0.208c0 0.004 0 0.008 0 0.012 0 0.070-0.013 0.138-0.037 0.2l0.001-0.004c-0.021 0.052-0.051 0.096-0.088 0.132l-0 0c-0.070 0.054-0.159 0.088-0.255 0.089h-0c-0.011 0.001-0.024 0.002-0.037 0.002-0.102 0-0.193-0.050-0.249-0.127l-0.001-0.001c-0.051-0.082-0.082-0.182-0.082-0.29 0-0.008 0-0.016 0.001-0.024l-0 0.001v-2.177c-0.004-0.121 0.022-0.24 0.075-0.349 0.057-0.087 0.153-0.143 0.263-0.143 0.012 0 0.025 0.001 0.037 0.002l-0.001-0c0.003-0 0.007-0 0.011-0 0.107 0 0.202 0.051 0.261 0.131l0.001 0.001c0.063 0.082 0.101 0.186 0.101 0.299 0 0.005-0 0.010-0 0.015l0-0.001v0.202h0.604v-0.238c0-0.003 0-0.006 0-0.009 0-0.144-0.027-0.281-0.077-0.407l0.003 0.008c-0.048-0.127-0.118-0.237-0.205-0.329l0 0zM5.31 25.951c-0.186-0.158-0.429-0.255-0.694-0.257h-0c-0.124 0-0.248 0.023-0.364 0.066q-0.179 0.065-0.322 0.191c-0.099 0.090-0.178 0.199-0.234 0.321l-0.002 0.006c-0.062 0.142-0.092 0.297-0.089 0.452v2.24c-0.004 0.157 0.026 0.314 0.089 0.458 0.055 0.121 0.135 0.228 0.236 0.313 0.094 0.086 0.203 0.154 0.322 0.197q0.177 0.065 0.364 0.066c0 0 0 0 0.001 0 0.266 0 0.51-0.1 0.694-0.264l-0.001 0.001c0.097-0.087 0.176-0.194 0.23-0.313 0.063-0.144 0.093-0.301 0.089-0.458v-2.239c0-0.005 0-0.010 0-0.016 0-0.157-0.033-0.307-0.092-0.443l0.003 0.007c-0.056-0.128-0.134-0.237-0.23-0.327l-0.001-0zM5.025 28.968c0.001 0.011 0.002 0.023 0.002 0.036 0 0.113-0.047 0.216-0.123 0.288l-0 0c-0.077 0.065-0.178 0.104-0.287 0.104s-0.21-0.039-0.288-0.105l0.001 0.001c-0.076-0.073-0.123-0.175-0.123-0.288 0-0.013 0.001-0.025 0.002-0.037l-0 0.002v-2.239c-0.001-0.011-0.002-0.023-0.002-0.035 0-0.113 0.047-0.215 0.123-0.288l0-0c0.077-0.065 0.178-0.104 0.287-0.104s0.21 0.039 0.288 0.105l-0.001-0.001c0.076 0.073 0.123 0.175 0.123 0.288 0 0.012-0.001 0.025-0.002 0.037l0-0.002zM10.072 29.969v-4.24h-0.586l-0.771 2.244h-0.010l-0.777-2.244h-0.58v4.239h0.606v-2.578h0.011l0.593 1.823h0.302l0.598-1.823h0.010v2.578zM13.513 26.027c-0.093-0.105-0.211-0.185-0.342-0.232-0.125-0.042-0.268-0.066-0.418-0.066-0.008 0-0.015 0-0.023 0h-0.899v4.24h0.604v-1.656h0.311c0.189 0.009 0.376-0.031 0.545-0.116 0.139-0.078 0.251-0.188 0.329-0.32l0.002-0.004c0.070-0.113 0.117-0.238 0.138-0.369 0.021-0.135 0.033-0.29 0.033-0.448 0-0.012-0-0.024-0-0.036l0 0.002c0.006-0.203-0.014-0.407-0.059-0.606-0.043-0.153-0.12-0.284-0.223-0.39l0 0zM13.201 27.319c-0.003 0.081-0.024 0.157-0.057 0.224l0.001-0.003c-0.035 0.065-0.089 0.116-0.154 0.147l-0.002 0.001c-0.074 0.034-0.161 0.054-0.253 0.054-0.011 0-0.022-0-0.034-0.001l0.002 0h-0.276v-1.441h0.311c0.009-0 0.019-0.001 0.029-0.001 0.088 0 0.172 0.020 0.247 0.055l-0.004-0.002c0.062 0.036 0.111 0.090 0.141 0.154l0.001 0.002c0.033 0.074 0.051 0.155 0.053 0.236v0.282c0 0.098 0.006 0.201 0 0.291zM16.374 25.729h-0.495l-0.934 4.24h0.604l0.177-0.911h0.823l0.178 0.911h0.604zM15.817 28.481l0.297-1.537h0.011l0.295 1.537zM20.277 28.283h-0.011l-0.912-2.554h-0.581v4.24h0.604v-2.55h0.012l0.923 2.549h0.568v-4.239h-0.604zM23.968 25.729l-0.486 1.686h-0.012l-0.486-1.686h-0.639l0.83 2.448v1.791h0.604v-1.791l0.83-2.447zM0 31.166h0.291v0.817h0.198v-0.817h0.289v-0.167h-0.778zM2.447 30.998l-0.382 0.985h0.21l0.081-0.224h0.392l0.084 0.224h0.215l-0.391-0.985zM2.417 31.593l0.134-0.365 0.134 0.365zM4.866 31.62h0.228v0.127c-0.063 0.052-0.145 0.083-0.233 0.083-0 0-0 0-0.001 0h0c-0.005 0-0.010 0-0.015 0-0.079 0-0.149-0.037-0.194-0.094l-0-0.001c-0.046-0.066-0.073-0.147-0.073-0.235 0-0.008 0-0.015 0.001-0.023l-0 0.001q0-0.329 0.283-0.329c0.006-0.001 0.013-0.001 0.020-0.001 0.097 0 0.179 0.066 0.202 0.156l0 0.001 0.194-0.038q-0.062-0.289-0.417-0.289c-0.004-0-0.009-0-0.014-0-0.127 0-0.243 0.048-0.33 0.127l0-0c-0.088 0.087-0.143 0.208-0.143 0.342 0 0.013 0 0.026 0.002 0.038l-0-0.002c-0 0.007-0 0.015-0 0.023 0 0.132 0.048 0.253 0.127 0.347l-0.001-0.001c0.087 0.090 0.209 0.145 0.344 0.145 0.010 0 0.021-0 0.031-0.001l-0.001 0c0.005 0 0.010 0 0.016 0 0.155 0 0.296-0.060 0.402-0.157l-0 0v-0.388h-0.426zM7.337 30.998h-0.199v0.985h0.689v-0.167h-0.49zM9.426 30.998h-0.199v0.985h0.199zM11.469 31.655l-0.404-0.657h-0.193v0.985h0.185v-0.643l0.396 0.643h0.198v-0.985h-0.182zM13.315 31.55h0.49v-0.168h-0.49v-0.215h0.527v-0.168h-0.727v0.985h0.747v-0.167h-0.548zM17.792 31.386h-0.388v-0.388h-0.197v0.984h0.197v-0.431h0.388v0.431h0.198v-0.985h-0.198zM19.649 31.55h0.492v-0.168h-0.492v-0.215h0.529v-0.168h-0.726v0.985h0.746v-0.167h-0.548zM22.168 31.55q0.258-0.040 0.258-0.274c0.001-0.009 0.002-0.018 0.002-0.028 0-0.078-0.039-0.148-0.098-0.19l-0.001-0c-0.073-0.037-0.158-0.059-0.249-0.059-0.014 0-0.027 0-0.041 0.001l0.002-0h-0.417v0.984h0.198v-0.412h0.039c0.006-0 0.013-0.001 0.019-0.001 0.038 0 0.073 0.008 0.105 0.024l-0.002-0.001q0.044 0.027 0.070 0.072l0.215 0.313h0.236l-0.12-0.192c-0.054-0.096-0.127-0.176-0.215-0.235l-0.002-0.002zM21.969 31.413h-0.146v-0.247h0.156c0.013-0.001 0.029-0.002 0.045-0.002 0.056 0 0.11 0.009 0.16 0.026l-0.003-0.001c0.026 0.024 0.043 0.058 0.043 0.096 0 0.042-0.020 0.080-0.052 0.104l-0 0c-0.049 0.016-0.105 0.025-0.163 0.025-0.013 0-0.026-0-0.040-0.001l0.002 0zM24.068 31.55h0.49v-0.168h-0.49v-0.215h0.529v-0.168h-0.729v0.985h0.747v-0.167h-0.548z"></path>
</symbol>
<symbol id="icon-group1" viewBox="0 0 28 32">
<path d="M4.085 0l4.771 4.517-8.857-0.005v21.915h23.149v-8.379l4.766 4.512v-22.559zM22.939 17.517l-13.528-12.807h13.528zM18.739 23.22h-15.076v-14.738h1.066v13.74h14.011zM7.224 29.345l-0.557 1.147-0.557-1.147h-0.467l0.813 1.529v0.891h0.422v-0.891l0.811-1.529zM7.924 31.765l0.196-0.564h0.938l0.197 0.564h0.439l-0.916-2.42h-0.378l-0.914 2.42zM8.588 29.859l0.351 1.004h-0.701zM10.806 30.804c-0.057 0.085-0.091 0.189-0.091 0.302 0 0.002 0 0.004 0 0.006v-0q0 0.306 0.214 0.497 0.216 0.19 0.575 0.19t0.618-0.195l0.136 0.161h0.468l-0.355-0.421q0.209-0.286 0.209-0.733h-0.351q0 0.245-0.101 0.444l-0.468-0.552 0.165-0.12c0.101-0.067 0.184-0.151 0.249-0.249l0.002-0.003c0.048-0.079 0.076-0.175 0.076-0.278 0-0 0-0.001 0-0.001v0c0-0.003 0-0.006 0-0.010 0-0.149-0.065-0.282-0.169-0.373l-0.001-0c-0.108-0.097-0.252-0.157-0.41-0.157-0.008 0-0.016 0-0.024 0l0.001-0q-0.293 0-0.465 0.166-0.174 0.165-0.173 0.449 0 0.116 0.054 0.241 0.057 0.125 0.197 0.302-0.269 0.193-0.36 0.334zM11.898 31.339c-0.103 0.084-0.237 0.135-0.382 0.136h-0c-0.005 0-0.012 0-0.018 0-0.105 0-0.2-0.040-0.271-0.106l0 0c-0.067-0.066-0.109-0.157-0.109-0.258 0-0.005 0-0.010 0-0.015l-0 0.001q0-0.194 0.2-0.346l0.052-0.037zM11.464 30.267q-0.172-0.211-0.172-0.351 0-0.121 0.070-0.201c0.044-0.049 0.108-0.081 0.179-0.081 0.003 0 0.007 0 0.010 0h-0c0.003-0 0.006-0 0.009-0 0.067 0 0.127 0.026 0.173 0.068l-0-0q0.072 0.067 0.072 0.161c0 0.003 0 0.006 0 0.009 0 0.090-0.040 0.171-0.103 0.226l-0 0-0.052 0.041zM15.404 31.581q0.249-0.218 0.286-0.605h-0.419q-0.034 0.259-0.158 0.37-0.125 0.112-0.372 0.112-0.271 0-0.412-0.206t-0.14-0.599v-0.214q0.004-0.387 0.15-0.587 0.148-0.201 0.422-0.201 0.236 0 0.357 0.116 0.123 0.116 0.153 0.376h0.419q-0.040-0.398-0.285-0.615t-0.645-0.218q-0.298 0-0.525 0.142c-0.152 0.097-0.271 0.234-0.345 0.396l-0.002 0.006c-0.077 0.17-0.122 0.369-0.122 0.578 0 0.009 0 0.018 0 0.027l-0-0.001v0.226q0.005 0.334 0.125 0.587 0.12 0.252 0.339 0.39 0.221 0.136 0.511 0.136 0.414 0 0.663-0.216zM17.875 31.242q0.123-0.27 0.123-0.625v-0.134c0-0.007 0-0.016 0-0.024 0-0.216-0.047-0.421-0.131-0.605l0.004 0.009c-0.077-0.171-0.199-0.31-0.35-0.406l-0.004-0.002q-0.227-0.143-0.524-0.143t-0.525 0.144q-0.227 0.143-0.354 0.414c-0.079 0.176-0.125 0.382-0.125 0.599 0 0.009 0 0.019 0 0.028l-0-0.001v0.136q0.002 0.347 0.126 0.613 0.127 0.266 0.356 0.411 0.231 0.143 0.525 0.143 0.298 0 0.526-0.143 0.229-0.145 0.352-0.413zM17.425 29.874q0.152 0.215 0.152 0.618v0.126q0 0.409-0.151 0.622-0.149 0.213-0.429 0.213c-0.005 0-0.011 0-0.017 0-0.171 0-0.323-0.086-0.414-0.216l-0.001-0.002q-0.155-0.218-0.155-0.617v-0.14q0.003-0.39 0.156-0.603c0.091-0.13 0.24-0.215 0.409-0.215 0.006 0 0.012 0 0.019 0l-0.001-0q0.28 0 0.431 0.214z"></path>
</symbol>
<symbol id="icon-mail" viewBox="0 0 43 32">
<path d="M38.667 0h-34.667c-2.205 0-4 1.795-4 4v24c0 2.205 1.795 4 4 4h34.667c2.205 0 4-1.795 4-4v-24c0-2.205-1.795-4-4-4zM38.667 2.667q0.275 0 0.512 0.104l-17.845 15.467-17.845-15.467c0.151-0.065 0.327-0.103 0.512-0.104h0zM38.667 29.333h-34.667c-0.736 0-1.333-0.597-1.333-1.333v0-22.413l17.792 15.421c0.233 0.203 0.539 0.327 0.875 0.327s0.642-0.124 0.876-0.328l-0.002 0.001 17.792-15.421v22.413c0 0.736-0.597 1.333-1.333 1.333v0z"></path>
</symbol>
<symbol id="icon-phone" viewBox="0 0 20 32">
<path d="M17 0h-14c-1.654 0-3 1.346-3 3v26c0 1.654 1.346 3 3 3h14c1.654 0 3-1.346 3-3v-26c0-1.654-1.346-3-3-3zM3 2h14c0.552 0 1 0.448 1 1v0 21h-16v-21c0-0.552 0.448-1 1-1v0zM17 30h-14c-0.552 0-1-0.448-1-1v0-3h16v3c0 0.552-0.448 1-1 1v0z"></path>
</symbol>
<symbol id="icon-facebook" viewBox="0 0 32 32">
<path d="M21.328 5.312h2.923v-5.088c-1.243-0.143-2.684-0.224-4.143-0.224-0.040 0-0.079 0-0.119 0h0.006c-4.213 0-7.099 2.65-7.099 7.52v4.48h-4.646v5.688h4.646v14.312h5.699v-14.31h4.459l0.709-5.688h-5.17v-3.922c0-1.643 0.443-2.768 2.734-2.768z"></path>
</symbol>
<symbol id="icon-instagram" viewBox="0 0 32 32">
<path d="M31.968 9.408c-0.074-1.701-0.349-2.869-0.742-3.882-0.425-1.111-1.055-2.058-1.85-2.837l-0.001-0.001c-0.779-0.793-1.724-1.421-2.778-1.827l-0.054-0.018c-1.019-0.394-2.181-0.667-3.882-0.742-1.712-0.082-2.256-0.101-6.602-0.101-4.344 0-4.888 0.019-6.595 0.094-1.699 0.074-2.869 0.349-3.88 0.742-1.112 0.425-2.059 1.055-2.839 1.85l-0.001 0.001c-0.792 0.779-1.419 1.724-1.825 2.778l-0.018 0.054c-0.395 1.019-0.669 2.181-0.744 3.882-0.082 1.712-0.101 2.256-0.101 6.602 0 4.344 0.019 4.888 0.094 6.595 0.075 1.701 0.35 2.869 0.744 3.882 0.425 1.111 1.054 2.058 1.848 2.837l0.001 0.001c0.8 0.813 1.77 1.443 2.832 1.843 1.019 0.395 2.182 0.67 3.882 0.744 1.707 0.075 2.251 0.094 6.595 0.094 4.346 0 4.89-0.019 6.595-0.094 1.701-0.074 2.869-0.349 3.882-0.742 2.157-0.851 3.832-2.526 4.664-4.628l0.019-0.055c0.394-1.019 0.669-2.182 0.744-3.882 0.075-1.707 0.093-2.251 0.093-6.595s-0.006-4.888-0.080-6.595zM29.090 22.474c-0.070 1.563-0.333 2.406-0.55 2.97-0.552 1.399-1.64 2.486-3.004 3.024l-0.036 0.013c-0.56 0.219-1.411 0.482-2.968 0.55-1.688 0.075-2.194 0.094-6.464 0.094s-4.782-0.019-6.464-0.094c-1.563-0.069-2.406-0.331-2.97-0.55-0.72-0.27-1.334-0.677-1.836-1.193l-0.001-0.001c-0.517-0.503-0.924-1.117-1.184-1.803l-0.011-0.034c-0.218-0.563-0.48-1.413-0.549-2.97-0.075-1.688-0.094-2.195-0.094-6.464s0.019-4.784 0.094-6.464c0.069-1.563 0.331-2.406 0.549-2.97 0.268-0.722 0.677-1.337 1.197-1.837l0.002-0.002c0.504-0.517 1.119-0.924 1.806-1.182l0.034-0.011c0.56-0.219 1.411-0.48 2.968-0.55 1.688-0.074 2.195-0.093 6.464-0.093 4.275 0 4.782 0.019 6.464 0.093 1.563 0.069 2.406 0.331 2.97 0.55 0.693 0.256 1.325 0.662 1.837 1.194 0.531 0.52 0.938 1.144 1.195 1.84 0.218 0.56 0.48 1.411 0.549 2.968 0.075 1.688 0.094 2.194 0.094 6.464s-0.019 4.768-0.094 6.458z"></path>
<path d="M16.059 7.782c-4.539 0.003-8.217 3.682-8.219 8.221v0c0 0 0 0.001 0 0.002 0 4.541 3.681 8.222 8.222 8.222s8.222-3.681 8.222-8.222c0-4.541-3.681-8.222-8.222-8.222-0.001 0-0.001 0-0.002 0h0zM16.061 21.334c-2.945-0-5.332-2.388-5.332-5.333s2.388-5.333 5.333-5.333c0 0 0.001 0 0.001 0h-0c2.946 0 5.334 2.388 5.334 5.334s-2.388 5.334-5.334 5.334v0zM26.525 7.458c0 1.060-0.86 1.92-1.92 1.92s-1.92-0.86-1.92-1.92v0c0-1.060 0.86-1.92 1.92-1.92s1.92 0.86 1.92 1.92v0z"></path>
</symbol>
<symbol id="icon-linkedin" viewBox="0 0 32 32">
<path d="M31.992 32h0.008v-11.738c0-5.741-1.237-10.163-7.947-10.163-3.227 0-5.392 1.77-6.277 3.45h-0.093v-2.914h-6.365v21.363h6.627v-10.578c0-2.786 0.528-5.48 3.978-5.48 3.398 0 3.45 3.179 3.45 5.658v10.402zM0.528 10.635h6.635v21.365h-6.635zM3.843 0c-0.001 0-0.002 0-0.003 0-2.121 0-3.84 1.719-3.84 3.84 0 0.001 0 0.002 0 0.003v-0c0 2.122 1.722 3.878 3.843 3.878s3.842-1.757 3.842-3.878c-0.001-2.122-1.72-3.841-3.841-3.843h-0z"></path>
</symbol>
<symbol id="icon-twitter" viewBox="0 0 32 32">
<path d="M32 6.078c-1.1 0.492-2.376 0.856-3.712 1.028l-0.069 0.007c1.36-0.817 2.381-2.078 2.873-3.579l0.013-0.046c-1.198 0.722-2.591 1.273-4.076 1.573l-0.084 0.014c-1.2-1.279-2.9-2.076-4.787-2.076-3.622 0-6.558 2.936-6.558 6.558 0 0.002 0 0.004 0 0.005v-0c0 0.52 0.043 1.021 0.152 1.496-5.454-0.266-10.28-2.88-13.522-6.861-0.564 0.949-0.899 2.092-0.902 3.313v0.001c0 2.272 1.171 4.286 2.915 5.451-1.092-0.030-2.108-0.326-2.996-0.825l0.033 0.017v0.072c0.004 3.165 2.237 5.807 5.213 6.44l0.043 0.008c-0.493 0.136-1.060 0.215-1.644 0.215-0.027 0-0.053-0-0.080-0l0.004 0c-0.419 0-0.843-0.024-1.242-0.112 0.85 2.598 3.262 4.509 6.13 4.57-2.215 1.746-5.046 2.8-8.123 2.8-0.004 0-0.008 0-0.012 0h0.001c-0.009 0-0.020 0-0.031 0-0.542 0-1.077-0.034-1.601-0.099l0.063 0.006c2.826 1.846 6.286 2.944 10.003 2.944 0.022 0 0.043-0 0.065-0h-0.003c12.072 0 18.672-10 18.672-18.667q0-0.435-0.024-0.848c1.298-0.938 2.39-2.067 3.258-3.359l0.030-0.047z"></path>
</symbol>
</defs>
</svg>
